<svg id="Layer_1" data-name="Layer 1" xmlns="http://www.w3.org/2000/svg" viewBox="0 0 873.11 132.61"><title>logo-sofia</title><path d="M34.33,104.92,7,40H27.52L42.67,80.31,57.69,40H78.4L50.87,104.92Z" transform="translate(-6.95 -4.69)"/><path d="M106.89,40v64.92H87.71V40Z" transform="translate(-6.95 -4.69)"/><path d="M150,80.45l-8.47-2.22a41.32,41.32,0,0,1-11.2-4.52,15.32,15.32,0,0,1-6-6,22.72,22.72,0,0,1-2-5.42A22.48,22.48,0,0,1,122,57.1q.15-7.23,7.65-12.86a28.61,28.61,0,0,1,17.65-5.63q11,0,18.77,5.28T174,60.16H155.82q-.13-5.7-7.36-5.7a8.67,8.67,0,0,0-5.08,1.32,3.81,3.81,0,0,0-1.74,3.54q.29,3.48,5.7,4.87l11,2.92a26.15,26.15,0,0,1,11.47,6q4.25,4,5.22,7a19.23,19.23,0,0,1,1,5.9,16.75,16.75,0,0,1-8.41,15,36.21,36.21,0,0,1-19.67,5.28,30.75,30.75,0,0,1-18.84-6,19.64,19.64,0,0,1-8.27-16.33h18.07a7.15,7.15,0,0,0,2.92,5.21,10.17,10.17,0,0,0,6.68,2.3,11.3,11.3,0,0,0,5.63-1.6A4.41,4.41,0,0,0,156.38,86a4.17,4.17,0,0,0-1.46-3.33A13.24,13.24,0,0,0,150,80.45Z" transform="translate(-6.95 -4.69)"/><path d="M231.44,74.34V40h19.33v64.92H231.44V96a19.76,19.76,0,0,1-16.82,10.29q-11.4,0-18.55-7.09t-7.16-20.44V40h19.32V74.61q0,7,3.61,9.94a12.13,12.13,0,0,0,7.93,3,11.6,11.6,0,0,0,8.34-3.19Q231.44,81.14,231.44,74.34Z" transform="translate(-6.95 -4.69)"/><path d="M316.65,104.92V97.55a17.42,17.42,0,0,1-8.54,6.4,29.27,29.27,0,0,1-10.36,2.22,32.79,32.79,0,0,1-23.08-9.38q-10-9.39-10-24.4t10-24.4a32.79,32.79,0,0,1,23.08-9.38,30.33,30.33,0,0,1,10.08,2,17.83,17.83,0,0,1,8.82,6.67V40h19.19v64.92Zm-27-43.58a14.83,14.83,0,0,0,0,22.1A16.56,16.56,0,0,0,301,87.82a15.92,15.92,0,0,0,11-4.24,14.3,14.3,0,0,0,4.72-11.19,14.32,14.32,0,0,0-4.72-11.19A15.92,15.92,0,0,0,301,57,16.56,16.56,0,0,0,289.62,61.34Z" transform="translate(-6.95 -4.69)"/><path d="M353.63,4.69H373V104.92H353.63Z" transform="translate(-6.95 -4.69)"/><path d="M390.75,4.69h19.32V104.92H390.75Z" transform="translate(-6.95 -4.69)"/><path d="M489.3,40l-40,96.75H428.83l15.57-38.5L419.38,40H440l14.31,36.84L468.73,40Z" transform="translate(-6.95 -4.69)"/><path d="M551.72,104.92v-10a21.23,21.23,0,0,1-9.46,8.41,30.56,30.56,0,0,1-13.34,3,31.78,31.78,0,0,1-23.28-9.45q-9.52-9.45-9.53-24.47t9.46-24.47a33.6,33.6,0,0,1,36.76-6.46,20.51,20.51,0,0,1,9.39,8.27v-45h12.65V104.92ZM545.25,88q6.33-5.91,6.33-15.78t-6.53-15.57A22.2,22.2,0,0,0,530,51a20.54,20.54,0,0,0-14.94,5.91Q509,62.8,509,72.25t6.05,15.57A20.17,20.17,0,0,0,530,93.94,21.49,21.49,0,0,0,545.25,88Z" transform="translate(-6.95 -4.69)"/><path d="M598,104.92V40H585.5v64.92Z" transform="translate(-6.95 -4.69)"/><path d="M628.87,114.23a19.67,19.67,0,0,0,8,8.2,21.7,21.7,0,0,0,10.77,2.92q23.07,0,23.08-29.47a7.06,7.06,0,0,0-.07-.76,5.27,5.27,0,0,1-.07-.77,19.61,19.61,0,0,1-9.25,8.76,30.19,30.19,0,0,1-13.55,3.2A32.27,32.27,0,0,1,624.42,97q-9.6-9.3-9.59-24.32t9.59-24.61a32,32,0,0,1,23.35-9.45,30.43,30.43,0,0,1,13.42,3.06,20.76,20.76,0,0,1,9.38,8.48V40h12.51V95.05q0,42.26-35.45,42.26a32.82,32.82,0,0,1-17-4.59,33.27,33.27,0,0,1-12.37-12.93q1-.42,5.56-2.92C626.92,115.21,628.59,114.32,628.87,114.23Zm41.56-41.7q0-10-6.26-15.78A21.74,21.74,0,0,0,648.88,51a20.4,20.4,0,0,0-15,6.12,20.91,20.91,0,0,0-6.12,15.43q0,9.73,6,15.57a20.86,20.86,0,0,0,15.08,5.84,21.92,21.92,0,0,0,15-5.84Q670.43,82.26,670.43,72.53Z" transform="translate(-6.95 -4.69)"/><path d="M716.58,104.92V40H704.07v64.92Z" transform="translate(-6.95 -4.69)"/><path d="M755.22,40H769V50.71H755.22v54.21H742.57V50.71H730.9V40h11.67V15.54h12.65Z" transform="translate(-6.95 -4.69)"/><path d="M833.76,104.92v-10a21.25,21.25,0,0,1-9.45,8.41,30.6,30.6,0,0,1-13.34,3,32,32,0,0,1-23.36-9.45Q778,87.41,778,72.39t9.59-24.47A32.32,32.32,0,0,1,811,38.61a31.59,31.59,0,0,1,13.41,2.92,20.24,20.24,0,0,1,9.38,8.2V40h12.51v64.92Zm-.14-32.67q0-9.87-6.53-15.57a22.18,22.18,0,0,0-15-5.7A20.7,20.7,0,0,0,797,56.89q-6.06,5.91-6,15.36a21.12,21.12,0,0,0,6.11,15.57,20.43,20.43,0,0,0,15,6.12,21.6,21.6,0,0,0,15.29-5.84Q833.63,82.26,833.62,72.25Z" transform="translate(-6.95 -4.69)"/><path d="M867.4,4.69h12.65V104.92H867.4Z" transform="translate(-6.95 -4.69)"/></svg>